# xmcd CD database file
#
# Track frame offsets:
#	150
#	21843
#	50038
#
# Disc length: 953 seconds
#
# Revision: 2
# Processed by: cddbd v1.5.1PL0 Copyright (c) Steve Scherf et al.
# Submitted via: CDex 1.51
#
DISCID=2103b703
DTITLE=葛山信吾 - CARRY ON
DYEAR=2000
DGENRE=JPop
TTITLE0=CARRY ON
TTITLE1=勇気をくれた人へ
TTITLE2=CARRY ON(オリジナルカラオケ)
EXTD=YEAR: 2000
EXTT0=
EXTT1=
EXTT2=
PLAYORDER=
